# xmcd
#
# Track frame offsets:
#	150
#	18637
#	34965
#	55180
#	71446
#	92992
#	111679
#	136979
#	158772
#	176789
#	198303
#	219806
#
# Disc length: 3134 seconds
#
# Revision: 2
# Processed by: cddbd v1.5.2PL0 Copyright (c) Steve Scherf et al.
# Submitted via: EasyCDDAExtractor 16.0.6.1
#
DISCID=ae0c3c0c
DTITLE=Vargas Blues Band - R-675 Madrid - Memphis
DYEAR=1900
DGENRE=Blues
TTITLE0=Hard times blues
TTITLE1=One day I get lucky
TTITLE2=Madrid - Memphis
TTITLE3=Blues business
TTITLE4=Get ready
TTITLE5=Generation Blues
TTITLE6=2001 Blues
TTITLE7=Del sur
TTITLE8=Right time
TTITLE9=When the night falls
TTITLE10=I'm ready
TTITLE11=Strip-tease
EXTD=
EXTT0=
EXTT1=
EXTT2=
EXTT3=
EXTT4=
EXTT5=
EXTT6=
EXTT7=
EXTT8=
EXTT9=
EXTT10=
EXTT11=
PLAYORDER=
